<svg id="Capa_1" enable-background="new 0 0 512 512" height="512" viewBox="0 0 512 512" width="512" xmlns="http://www.w3.org/2000/svg"><g><g><g><g><path d="m108.554 455.504c-8.284 0-15-6.716-15-15v-30.771c0-24.31 19.777-44.087 44.087-44.087h1.684c7.768 0 14.087-6.319 14.087-14.087v-54.713c0-8.284 6.716-15 15-15s15 6.716 15 15v54.713c0 24.31-19.777 44.087-44.087 44.087h-1.684c-7.768 0-14.087 6.319-14.087 14.087v30.771c0 8.284-6.716 15-15 15z" fill="#75cef9"/><circle cx="108.554" cy="463.592" fill="#eddc54" r="39.531"/><path d="m123.533 500.183c-4.62 1.9-9.68 2.94-14.98 2.94-21.83 0-39.53-17.7-39.53-39.53s17.7-39.53 39.53-39.53c5.3 0 10.36 1.04 14.98 2.94-14.4 5.91-24.54 20.06-24.54 36.59s10.14 30.68 24.54 36.59z" fill="#dbaf55"/></g><path d="m403.446 455.504c8.284 0 15-6.716 15-15v-30.771c0-24.31-19.777-44.087-44.087-44.087h-1.684c-7.768 0-14.087-6.319-14.087-14.087v-54.713c0-8.284-6.716-15-15-15s-15 6.716-15 15v54.713c0 24.31 19.777 44.087 44.087 44.087h1.684c7.768 0 14.087 6.319 14.087 14.087v30.771c0 8.284 6.716 15 15 15z" fill="#75cef9"/><circle cx="403.446" cy="463.592" fill="#eddc54" r="39.531"/><path d="m418.425 500.183c-4.62 1.9-9.68 2.94-14.98 2.94-21.83 0-39.53-17.7-39.53-39.53s17.7-39.53 39.53-39.53c5.3 0 10.36 1.04 14.98 2.94-14.4 5.91-24.54 20.06-24.54 36.59s10.14 30.68 24.54 36.59z" fill="#dbaf55"/></g><g><path d="m256 478.592c-8.284 0-15-6.716-15-15v-201.469c0-8.284 6.716-15 15-15s15 6.716 15 15v201.469c0 8.284-6.716 15-15 15z" fill="#75cef9"/><g><circle cx="256" cy="463.592" fill="#eddc54" r="39.531"/><path d="m270.979 500.183c-4.62 1.9-9.68 2.94-14.98 2.94-21.83 0-39.53-17.7-39.53-39.53s17.7-39.53 39.53-39.53c5.3 0 10.36 1.04 14.98 2.94-14.4 5.91-24.54 20.06-24.54 36.59s10.14 30.68 24.54 36.59z" fill="#dbaf55"/></g></g><path d="m452.979 194.822c1.085-7.589 1.658-15.344 1.658-23.233 0-89.865-72.85-162.715-162.715-162.715-72.798 0-134.424 47.809-155.209 113.74-7.165-1.513-14.593-2.314-22.209-2.314-59.096 0-107.002 47.906-107.002 107.002s47.907 107.002 107.002 107.002h318.874c39.279 0 71.12-31.841 71.12-71.12 0-32.477-21.777-59.849-51.519-68.362z" fill="#daeefa"/><path d="m377.162 32.971c-1.15-.03-2.31-.04-3.47-.04-72.8 0-134.42 47.81-155.21 113.74-7.16-1.52-14.59-2.32-22.21-2.32-59.09 0-107 47.91-107 107 0 33.46 15.36 63.33 39.4 82.95h-14.16c-59.1 0-107.01-47.91-107.01-107 0-59.1 47.91-107.01 107.01-107.01 7.61 0 15.04.81 22.2 2.32 20.79-65.93 82.42-113.74 155.21-113.74 31.25.001 60.45 8.811 85.24 24.1z" fill="#c0e3f8"/></g><path d="m433.38 341.807c43.352 0 78.62-35.269 78.62-78.62 0-32.725-20.599-62.096-50.822-73.544.639-6.038.962-12.088.962-18.056 0-93.854-76.36-170.21-170.22-170.21-36.929 0-72.059 11.63-101.589 33.632-27.17 20.243-47.349 47.479-58.661 79.075-5.663-.855-11.413-1.287-17.17-1.287-20.573 0-40.756 5.526-58.369 15.981-3.562 2.114-4.735 6.716-2.621 10.278 2.115 3.562 6.717 4.736 10.278 2.621 15.296-9.08 32.832-13.879 50.711-13.879 6.963 0 13.912.726 20.652 2.156 3.778.801 7.548-1.397 8.71-5.081 9.711-30.797 29.396-58.439 55.43-77.835 26.922-20.058 58.952-30.66 92.627-30.66 85.589 0 155.22 69.627 155.22 155.21 0 7.319-.533 14.779-1.585 22.174-.526 3.707 1.761 7.234 5.36 8.266 27.134 7.774 46.085 32.924 46.085 61.16 0 35.08-28.54 63.62-63.62 63.62h-318.878c-54.864 0-99.5-44.64-99.5-99.51 0-25.449 9.603-49.658 27.039-68.167 2.84-3.015 2.699-7.761-.316-10.602-3.015-2.84-7.762-2.699-10.602.316-20.069 21.303-31.121 49.165-31.121 78.452 0 63.141 51.364 114.51 114.5 114.51h31.408v9.755c0 3.628-2.952 6.58-6.58 6.58h-1.69c-28.441 0-51.58 23.143-51.58 51.59v12.569c-14.606 7.99-24.535 23.501-24.535 41.29 0 25.933 21.098 47.031 47.031 47.031s47.031-21.098 47.031-47.031c0-17.786-9.926-33.295-24.527-41.286v-12.574c0-3.634 2.952-6.59 6.58-6.59h1.69c28.441 0 51.58-23.139 51.58-51.58v-9.755h42.59v80.498c-14.602 7.99-24.529 23.5-24.529 41.287 0 25.933 21.098 47.031 47.031 47.031 25.934 0 47.031-21.098 47.031-47.031 0-17.788-9.928-33.3-24.533-41.289v-80.495h42.59v9.755c0 28.441 23.144 51.58 51.59 51.58h1.681c3.634 0 6.59 2.956 6.59 6.59v12.57c-14.605 7.99-24.533 23.501-24.533 41.289 0 25.933 21.098 47.031 47.031 47.031s47.03-21.098 47.03-47.031c0-17.786-9.925-33.295-24.526-41.286v-12.569c0-6.354-1.145-12.546-3.401-18.406-1.488-3.864-5.825-5.794-9.695-4.303-3.865 1.489-5.791 5.829-4.303 9.694 1.592 4.133 2.399 8.512 2.399 13.015v7.43c-2.445-.394-4.95-.606-7.504-.606-2.552 0-5.055.212-7.498.605v-7.433c0-11.905-9.686-21.59-21.59-21.59h-1.681c-20.176 0-36.59-16.41-36.59-36.58v-9.755h15.002v9.76c0 11.899 9.686 21.58 21.59 21.58h1.681c6.944 0 13.706 1.967 19.554 5.688 1.248.794 2.642 1.173 4.02 1.173 2.479 0 4.905-1.228 6.334-3.475 2.225-3.495 1.193-8.13-2.301-10.354-8.258-5.255-17.805-8.032-27.606-8.032h-1.681c-3.634 0-6.59-2.952-6.59-6.58v-9.76zm2.097 121.785c0 17.662-14.369 32.031-32.03 32.031-17.662 0-32.031-14.369-32.031-32.031s14.369-32.031 32.031-32.031c17.66 0 32.03 14.369 32.03 32.031zm-294.892 0c0 17.662-14.369 32.031-32.031 32.031s-32.031-14.369-32.031-32.031 14.369-32.031 32.031-32.031 32.031 14.369 32.031 32.031zm35.323-112.029c0 20.17-16.41 36.58-36.58 36.58h-1.69c-11.899 0-21.58 9.685-21.58 21.59v7.434c-2.445-.394-4.95-.606-7.504-.606-2.552 0-5.054.211-7.496.604v-7.433c0-20.176 16.41-36.59 36.58-36.59h1.69c11.899 0 21.58-9.681 21.58-21.58v-9.755h15zm112.123 112.029c0 17.662-14.369 32.031-32.031 32.031s-32.031-14.369-32.031-32.031 14.369-32.031 32.031-32.031 32.031 14.369 32.031 32.031zm-24.533-46.426c-2.443-.393-4.946-.605-7.498-.605-2.553 0-5.058.212-7.502.605v-75.359h15z"/></g></svg>