<?xml version="1.0" encoding="UTF-8" standalone="no"?> <svg xmlns="http://www.w3.org/2000/svg" viewBox="0 0 64 64"><defs><style>.cls-1{fill:#ffb8f2;}.cls-1,.cls-2,.cls-4,.cls-7{stroke:#54596e;}.cls-1,.cls-2,.cls-4,.cls-6,.cls-7{stroke-linecap:round;stroke-linejoin:round;stroke-width:2px;}.cls-2{fill:#fff;}.cls-3{fill:#999;}.cls-4,.cls-6{fill:none;}.cls-5{fill:#ff927d;}.cls-6{stroke:#fff35f;}.cls-7{fill:#54596e;}</style></defs><title>phone</title><g id="phone"><path class="cls-1" d="M21.14,3H44.86A3.14,3.14,0,0,1,48,6.14V52a0,0,0,0,1,0,0H18a0,0,0,0,1,0,0V6.14A3.14,3.14,0,0,1,21.14,3Z"/><path class="cls-2" d="M18,52H48a0,0,0,0,1,0,0v4.86A3.14,3.14,0,0,1,44.86,60H21.14A3.14,3.14,0,0,1,18,56.86V52A0,0,0,0,1,18,52Z"/><circle class="cls-3" cx="33" cy="56" r="2"/><path class="cls-4" d="M37,22.5a2,2,0,0,1,4,0"/><path class="cls-4" d="M25,22.5a2,2,0,0,1,4,0"/><circle class="cls-5" cx="23.5" cy="27.5" r="2.5"/><circle class="cls-5" cx="42.5" cy="27.5" r="2.5"/><line class="cls-6" x1="25" y1="7" x2="22" y2="10"/><line class="cls-6" x1="31" y1="7" x2="22.5" y2="15.5"/><ellipse class="cls-7" cx="33" cy="34" rx="3" ry="5"/></g></svg>