<?xml version="1.0" encoding="iso-8859-1"?>
<!-- Generator: Adobe Illustrator 19.0.0, SVG Export Plug-In . SVG Version: 6.00 Build 0)  -->
<svg version="1.1" id="Capa_1" xmlns="http://www.w3.org/2000/svg" xmlns:xlink="http://www.w3.org/1999/xlink" x="0px" y="0px"
	 viewBox="0 0 512 512" style="enable-background:new 0 0 512 512;" xml:space="preserve">
<g>
	<g>
		<path style="fill:#EAECEE;" d="M296,0H88C65.944,0,48,17.944,48,40v432c0,22.056,17.944,40,40,40h208c22.056,0,40-17.944,40-40V40
			C336,17.944,318.056,0,296,0z"/>
		<path style="fill:#D5D9DE;" d="M72,472V40c0-22.056,17.944-40,40-40H88C65.944,0,48,17.944,48,40v432c0,22.056,17.944,40,40,40h24
			C89.944,512,72,494.056,72,472z"/>
		<path style="fill:#808E9B;" d="M208,456h-32c-4.418,0-8,3.582-8,8v24c0,4.418,3.582,8,8,8h32c4.418,0,8-3.582,8-8v-24
			C216,459.582,212.418,456,208,456z"/>
		<path style="fill:#95A1AC;" d="M208,32h-32c-4.418,0-8-3.582-8-8s3.582-8,8-8h32c4.418,0,8,3.582,8,8S212.418,32,208,32z"/>
		<rect x="48" y="56" style="fill:#55697A;" width="288" height="384"/>
		<rect x="48" y="56" style="fill:#40566A;" width="24" height="384"/>
	</g>
	<g>
		<path style="fill:#FEF7E1;" d="M280,112H104c-4.418,0-8,3.582-8,8v156l60,60h124c4.418,0,8-3.582,8-8V120
			C288,115.582,284.418,112,280,112z"/>
		<path style="fill:#FEEEC3;" d="M148,276H96l60,60v-52C156,279.582,152.418,276,148,276z"/>
		<path style="fill:#FEEEC3;" d="M192,256c0,29.081,9.665,56.904,27.511,80H280c4.418,0,8-3.582,8-8V127.779
			C232.128,146.491,192,196.899,192,256z"/>
		<path style="fill:#FDDD88;" d="M184,176h-48c-4.418,0-8-3.582-8-8s3.582-8,8-8h48c4.418,0,8,3.582,8,8S188.418,176,184,176z"/>
		<path style="fill:#FDDD88;" d="M224,216h-88c-4.418,0-8-3.582-8-8s3.582-8,8-8h88c4.418,0,8,3.582,8,8S228.418,216,224,216z"/>
		<path style="fill:#FDDD88;" d="M192,256h-56c-4.418,0-8-3.582-8-8s3.582-8,8-8h56c4.418,0,8,3.582,8,8S196.418,256,192,256z"/>
		<path style="fill:#FDDD88;" d="M256,176h-40c-4.418,0-8-3.582-8-8s3.582-8,8-8h40c4.418,0,8,3.582,8,8S260.418,176,256,176z"/>
	</g>
	<g>
		<path style="fill:#76E7EB;" d="M336,136c-70.579,0-128,53.832-128,120c0,30.997,12.375,60.063,34.97,82.422l-18.488,50.844
			c-2.461,6.769,5.002,13.22,11.35,9.757l55.8-30.437C305.82,373.508,320.728,376,336,376c70.579,0,128-53.832,128-120
			S406.579,136,336,136z"/>
		<path style="fill:#1BD7DE;" d="M232,240c0-35.341,16.299-67.111,42.231-89.072C234.777,171.395,208,210.818,208,256
			c0,30.997,12.375,60.063,34.97,82.422l-18.488,50.844c-2.461,6.769,5.001,13.22,11.35,9.757l55.8-30.437
			C305.82,373.508,320.728,376,336,376c32.772,0,62.703-11.612,85.37-30.671C403.149,354.68,382.238,360,360,360
			C289.308,360,232,306.274,232,240z"/>
		<path style="fill:#FFFFFF;" d="M368,240c4.418,0,8-3.582,8-8v-8c0-17.645-14.355-32-32-32v-16c0-4.418-3.582-8-8-8s-8,3.582-8,8
			v16.228c-17.974,1.997-32,17.274-32,35.772c0,19.851,16.149,36,36,36h8c11.028,0,20,8.972,20,20s-8.972,20-20,20h-12
			c-8.822,0-16-7.178-16-16c0-4.418-3.582-8-8-8s-8,3.582-8,8c0,17.645,14.355,32,32,32v16c0,4.418,3.582,8,8,8s8-3.582,8-8v-16.228
			c17.974-1.997,32-17.274,32-35.772c0-19.851-16.149-36-36-36h-8c-11.028,0-20-8.972-20-20s8.972-20,20-20h12
			c8.822,0,16,7.178,16,16v8C360,236.418,363.582,240,368,240z"/>
	</g>
</g>
<g>
</g>
<g>
</g>
<g>
</g>
<g>
</g>
<g>
</g>
<g>
</g>
<g>
</g>
<g>
</g>
<g>
</g>
<g>
</g>
<g>
</g>
<g>
</g>
<g>
</g>
<g>
</g>
<g>
</g>
</svg>
