<?xml version="1.0" encoding="iso-8859-1"?>
<!-- Generator: Adobe Illustrator 19.0.0, SVG Export Plug-In . SVG Version: 6.00 Build 0)  -->
<svg version="1.1" id="Capa_1" xmlns="http://www.w3.org/2000/svg" xmlns:xlink="http://www.w3.org/1999/xlink" x="0px" y="0px"
	 viewBox="0 0 509.256 509.256" style="enable-background:new 0 0 509.256 509.256;" xml:space="preserve">
<g>
	<path style="fill:#FDDD88;" d="M372.039,1.809c-1.856-1.52-4.3-2.124-6.649-1.65c-27.493,5.554-53.104,8.126-78.328,7.842
		c-25.914-0.284-58.161-3.502-78.419-7.824c-3.11-0.666-6.327,0.582-8.179,3.173s-1.989,6.035-0.351,8.767
		c21.928,36.545,6.16,82.521-0.573,102.154l-0.134,0.39c-0.838,2.444-0.444,5.142,1.058,7.245s3.926,3.35,6.51,3.35h112
		c1.937,0,3.808-0.703,5.267-1.978c7.194-6.292,22.284-36.196,29.258-51.129c8.021-17.176,21.476-48.349,21.476-64.148
		C374.974,5.601,373.897,3.328,372.039,1.809z"/>
	<path style="fill:#FDE6A6;" d="M438.837,315.781c-10.237-54.596-40.636-88.378-67.455-118.184
		c-22.045-24.499-41.083-45.657-44.468-73.313c-0.231-1.896-0.37-3.253-0.452-4.212c0.692-1.841,0.689-3.896-0.052-5.765
		c-1.937-4.882-6.445-6.18-9.817-5.32c-0.248,0.063-0.539,0.15-0.856,0.269h-31.532c-0.435-0.936-0.915-1.957-1.439-3.071
		c-6.424-13.654-19.791-42.067-19.791-66.184c0-2.396-1.074-4.667-2.928-6.187c-1.854-1.521-4.29-2.127-6.642-1.658
		c-34.61,6.922-82.958,8.637-114.853-7.311c-5.738-2.866-12.522,2.148-11.47,8.471c8.08,48.478,26.661,70.992,40.347,87.384
		c-0.085,0.898-0.211,2.069-0.396,3.583c-3.385,27.657-22.423,48.814-44.468,73.313c-26.819,29.806-57.218,63.588-67.455,118.184
		c-4.898,26.125-4.733,50.577,0.491,72.675c4.88,20.642,14.175,39.326,27.625,55.533c17.845,21.501,42.354,38.183,72.847,49.582
		c27.447,10.26,58.88,15.684,90.9,15.684s63.453-5.423,90.9-15.684c30.493-11.399,55.002-28.081,72.847-49.582
		c13.45-16.207,22.745-34.891,27.625-55.533C443.571,366.358,443.736,341.906,438.837,315.781z"/>
	<path style="fill:#FDDD88;" d="M184.656,485.572c-30.493-11.399-55.002-28.081-72.847-49.582
		c-13.45-16.207-22.745-34.891-27.625-55.533c-5.225-22.099-5.39-46.55-0.491-72.675c10.237-54.596,40.636-88.378,67.455-118.184
		c5.493-6.105,10.798-11.222,15.721-15.893c5.946-5.642,13.826-8.782,22.022-8.782h155.2c-7.182-10.178-12.715-20.579-15.564-32
		H194.966c0.253-1.318,0.96-6.768,1.045-7.667c-13.077-15.664-30.616-48.389-39.201-93.561c-6.485-1.782-12.632-4.036-18.259-6.849
		c-5.738-2.866-12.522,2.148-11.47,8.471c8.08,48.478,26.661,70.992,40.347,87.384c-0.085,0.898-0.211,2.069-0.396,3.583
		c-3.385,27.657-22.423,48.814-44.468,73.313c-26.819,29.806-57.218,63.588-67.455,118.184c-4.898,26.125-4.733,50.577,0.491,72.675
		c4.88,20.642,14.175,39.326,27.625,55.533c17.845,21.501,42.354,38.183,72.847,49.582c27.447,10.26,58.88,15.684,90.9,15.684
		c30.29,0,60.048-4.86,86.41-14.069c-18.52,3.996-38.06,6.069-57.828,6.069C243.536,501.256,212.103,495.832,184.656,485.572z"/>
	<path style="fill:#FD8E61;" d="M438.689,104.879L438.689,104.879c-2.382-8.51-11.211-13.477-19.72-11.096l-115.104,32.215
		l11.893,29.901l111.836-31.301C436.103,122.217,441.07,113.388,438.689,104.879z"/>
	<path style="fill:#FD7239;" d="M445.279,150.697l-110.735-25.442l-7.468,31.118l111.038,25.511
		c8.612,1.979,17.198-3.399,19.177-12.011S453.891,152.676,445.279,150.697z"/>
	<path style="fill:#FD7239;" d="M326.974,149.256h-168c-8.837,0-16-7.163-16-16v0c0-8.837,7.163-16,16-16h168
		c8.837,0,16,7.163,16,16v0C342.974,142.092,335.811,149.256,326.974,149.256z"/>
	<path style="fill:#FFFFFF;" d="M294.974,301.256c6.627,0,12-5.373,12-12v-12c0-26.467-21.533-48-48-48v-20c0-6.627-5.373-12-12-12
		s-12,5.373-12,12v20.341c-26.961,2.995-48,25.912-48,53.659c0,29.776,24.224,54,54,54h12c16.542,0,30,13.458,30,30
		s-13.458,30-30,30h-18c-13.234,0-24-10.766-24-24c0-6.627-5.373-12-12-12s-12,5.373-12,12c0,26.467,21.533,48,48,48v20
		c0,6.627,5.373,12,12,12s12-5.373,12-12v-20.341c26.961-2.995,48-25.912,48-53.659c0-29.776-24.224-54-54-54h-12
		c-16.542,0-30-13.458-30-30s13.458-30,30-30h18c13.234,0,24,10.766,24,24v12C282.974,295.883,288.346,301.256,294.974,301.256z"/>
	<path style="fill:#FD8E61;" d="M326.974,165.256L326.974,165.256c-8.837,0-16-7.163-16-16v-32c0-8.837,7.163-16,16-16h0
		c8.837,0,16,7.163,16,16v32C342.974,158.092,335.811,165.256,326.974,165.256z"/>
</g>
<g>
</g>
<g>
</g>
<g>
</g>
<g>
</g>
<g>
</g>
<g>
</g>
<g>
</g>
<g>
</g>
<g>
</g>
<g>
</g>
<g>
</g>
<g>
</g>
<g>
</g>
<g>
</g>
<g>
</g>
</svg>
