<svg height="512" viewBox="0 0 512 512" width="512" xmlns="http://www.w3.org/2000/svg"><rect fill="#353744" height="448" rx="32" width="336" x="130.667" y="56"/><rect fill="#55525b" height="448" rx="32" width="320" x="130.667" y="56"/><rect fill="#d7e6f0" height="397.333" rx="16" width="272" x="154.667" y="82.667"/><g fill="#a5c3dc"><rect height="32" rx="16" width="114.667" x="189.333" y="152"/><rect height="32" rx="16" width="114.667" x="189.333" y="232"/><rect height="32" rx="16" width="114.667" x="189.333" y="312"/><rect height="32" rx="16" width="114.667" x="189.333" y="392"/></g><path d="m354.667 40h-32a32 32 0 0 0 -32-32 32 32 0 0 0 -32 32h-32a16 16 0 0 0 -16 16v32a16 16 0 0 0 16 16h128a16 16 0 0 0 16-16v-32a16 16 0 0 0 -16-16zm-64 16a16 16 0 1 1 16-16 16 16 0 0 1 -16 16z" fill="#6478b9"/><path d="m352 190.667h-.109a12 12 0 0 1 -8.528-3.67l-15.71-16.291a12 12 0 1 1 17.276-16.659l7.227 7.494 23.359-23.359a12 12 0 1 1 16.971 16.971l-32 32a12 12 0 0 1 -8.486 3.514z" fill="#f5871e"/><path d="m352 273.333h-.109a12 12 0 0 1 -8.529-3.67l-15.709-16.291a12 12 0 0 1 17.277-16.66l7.227 7.5 23.358-23.359a12 12 0 0 1 16.971 16.971l-32 32a12 12 0 0 1 -8.486 3.509z" fill="#f5871e"/><path d="m352 348h-.109a12 12 0 0 1 -8.528-3.67l-15.71-16.291a12 12 0 0 1 17.276-16.66l7.227 7.5 23.359-23.359a12 12 0 0 1 16.971 16.97l-32 32a12 12 0 0 1 -8.486 3.51z" fill="#f5871e"/><rect fill="#a5c3dc" height="48" rx="24" width="48" x="328" y="384"/><rect fill="#f5871e" height="40" rx="16" width="224" x="45.333" y="168"/><path d="m253.333 272v-64h-192v64a48 48 0 0 0 48 48 16 16 0 0 1 16 16 16 16 0 0 1 -16 16 48 48 0 0 0 -48 48v64h192v-64a48 48 0 0 0 -48-48 16 16 0 0 1 -16-16 16 16 0 0 1 16-16 48 48 0 0 0 48-48z" fill="#4b55a5"/><path d="m221.333 256h-128a8 8 0 0 0 -8 8v8a24 24 0 0 0 24 24 40 40 0 0 1 40 40v128h72l-34.687-23.125a52.841 52.841 0 0 0 -21.313-8.262v-96.613a40 40 0 0 1 40-40 24 24 0 0 0 24-24v-8a8 8 0 0 0 -8-8z" fill="#aac3d7"/><path d="m61.333 168h96a0 0 0 0 1 0 0v8a16 16 0 0 1 -16 16h-96a0 0 0 0 1 0 0v-8a16 16 0 0 1 16-16z" fill="#fabe19"/><rect fill="#f5871e" height="40" rx="16" width="224" x="45.333" y="464"/><path d="m61.333 464h96a0 0 0 0 1 0 0v8a16 16 0 0 1 -16 16h-96a0 0 0 0 1 0 0v-8a16 16 0 0 1 16-16z" fill="#fabe19"/><path d="m61.333 224h96a0 0 0 0 1 0 0 48 48 0 0 1 -48 48h-48a0 0 0 0 1 0 0v-48a0 0 0 0 1 0 0z" fill="#6478b9"/><path d="m109.333 352a48 48 0 0 1 48 48v64a0 0 0 0 1 0 0h-96a0 0 0 0 1 0 0v-64a48 48 0 0 1 48-48z" fill="#6478b9"/><path d="m145.111 256h-51.778a8 8 0 0 0 -8 8v8h24a47.9 47.9 0 0 0 35.778-16z" fill="#d7e6e6"/><path d="m149.333 373.471v59.142a52.842 52.842 0 0 0 -21.312 8.262l-34.688 23.125h64v-64a47.769 47.769 0 0 0 -8-26.529z" fill="#d7e6e6"/></svg>