<?xml version="1.0" encoding="iso-8859-1"?>
<!-- Generator: Adobe Illustrator 19.0.0, SVG Export Plug-In . SVG Version: 6.00 Build 0)  -->
<svg version="1.1" id="Capa_1" xmlns="http://www.w3.org/2000/svg" xmlns:xlink="http://www.w3.org/1999/xlink" x="0px" y="0px"
	 viewBox="0 0 512 512" style="enable-background:new 0 0 512 512;" xml:space="preserve">
<polygon style="fill:#D1E7F8;" points="504.5,44.075 139.808,44.075 139.808,257.939 7.5,257.939 7.5,467.927 272.116,467.927 
	272.116,333.478 504.5,333.478 "/>
<g>
	<rect x="139.81" y="44.071" style="fill:#9BC9FF;" width="30" height="213.87"/>
	<rect x="7.5" y="257.941" style="fill:#9BC9FF;" width="30" height="209.99"/>
	<rect x="193.33" y="282.941" style="fill:#9BC9FF;" width="81.39" height="25.539"/>
	<polygon style="fill:#9BC9FF;" points="193.328,69.075 193.328,257.939 299.436,257.939 299.436,308.478 504.5,308.478 
		504.5,69.075 	"/>
	<polygon style="fill:#9BC9FF;" points="168.608,333.478 168.608,282.939 62.5,282.939 62.5,442.927 274.716,442.927 
		274.716,333.478 	"/>
</g>
<g>
	<rect x="164.81" y="282.941" style="fill:#57A4FF;" width="82.31" height="25.539"/>
	<polygon style="fill:#57A4FF;" points="164.808,69.075 164.808,257.939 272.116,257.939 272.116,308.478 479.5,308.478 
		479.5,69.075 	"/>
</g>
<polygon style="fill:#006DF0;" points="473.273,176.241 473.273,105.302 402.334,105.302 422.281,125.248 331.772,215.756 
	362.819,246.801 453.327,156.294 "/>
<polygon style="fill:#57A4FF;" points="139.808,333.478 139.808,282.939 32.5,282.939 32.5,442.927 247.116,442.927 
	247.116,333.478 "/>
<polygon style="fill:#D1E7F8;" points="443.273,176.241 443.273,105.302 372.334,105.302 392.281,125.248 301.772,215.756 
	332.819,246.801 423.327,156.294 "/>
<g>
	<rect x="164.81" y="282.941" style="fill:#006DF0;" width="30" height="25.539"/>
	<rect x="169.81" y="69.071" style="fill:#006DF0;" width="25" height="188.87"/>
	<rect x="272.12" y="257.941" style="fill:#006DF0;" width="30" height="50.54"/>
	<rect x="32.5" y="282.941" style="fill:#006DF0;" width="30" height="159.99"/>
</g>
<polygon style="fill:#9BC9FF;" points="331.772,215.756 422.281,125.248 402.334,105.302 372.334,105.302 392.281,125.248 
	301.772,215.756 332.819,246.801 347.819,231.801 "/>
<rect x="364.98" y="275.981" width="15" height="15"/>
<rect x="389.98" y="275.981" width="15" height="15"/>
<rect x="414.98" y="275.981" width="15" height="15"/>
<rect x="439.98" y="275.981" width="15" height="15"/>
<g>
	<rect x="189.63" y="86.571" style="fill:#FFFFFF;" width="64.878" height="15"/>
	<rect x="264.51" y="86.571" style="fill:#FFFFFF;" width="15" height="15"/>
	<rect x="289.51" y="86.571" style="fill:#FFFFFF;" width="15" height="15"/>
	<rect x="115.19" y="410.431" style="fill:#FFFFFF;" width="64.878" height="15"/>
	<rect x="215.07" y="410.431" style="fill:#FFFFFF;" width="15" height="15"/>
	<rect x="190.07" y="410.431" style="fill:#FFFFFF;" width="15" height="15"/>
</g>
<path d="M132.308,36.575v213.864H0v224.987h279.616V340.979H512V36.575H132.308z M497,325.979H264.616v134.448H15V265.439h132.308
	V51.575H497V325.979z"/>
<path d="M254.616,275.439h-97.308v40.539h97.308V275.439z M239.616,300.979h-67.308V290.44h67.308V300.979z"/>
<path d="M264.616,315.979H487V61.575H157.308v203.864h107.308V315.979z M172.308,250.439V76.575H472v224.403H279.616v-50.539
	L172.308,250.439L172.308,250.439z"/>
<path d="M147.308,275.439H25v174.988h229.616V325.979H147.308V275.439z M239.616,340.979v94.449H40V290.439h92.308v50.539h107.308
	V340.979z"/>
<path d="M291.166,215.756l41.652,41.653l90.508-90.509l27.446,27.446V97.802h-96.546l27.447,27.446L291.166,215.756z
	 M435.773,112.802v45.332l-12.446-12.446l-90.508,90.509l-20.439-20.44l90.508-90.508l-12.446-12.446L435.773,112.802
	L435.773,112.802z"/>
<rect x="50" y="301.941" width="15" height="60.09"/>
<g>
</g>
<g>
</g>
<g>
</g>
<g>
</g>
<g>
</g>
<g>
</g>
<g>
</g>
<g>
</g>
<g>
</g>
<g>
</g>
<g>
</g>
<g>
</g>
<g>
</g>
<g>
</g>
<g>
</g>
</svg>
