<?xml version="1.0" encoding="utf-8"?>
<!-- Generator: Adobe Illustrator 23.0.3, SVG Export Plug-In . SVG Version: 6.00 Build 0)  -->
<svg version="1.1" id="Layer_1" xmlns="http://www.w3.org/2000/svg" xmlns:xlink="http://www.w3.org/1999/xlink" x="0px" y="0px"
	 viewBox="0 0 512 512" style="enable-background:new 0 0 512 512;" xml:space="preserve">
<style type="text/css">
	.st0{fill:url(#SVGID_1_);}
	.st1{fill:url(#SVGID_2_);}
	.st2{fill:url(#SVGID_3_);}
	.st3{fill:url(#SVGID_4_);}
	.st4{fill:url(#SVGID_5_);}
	.st5{fill:url(#SVGID_6_);}
	.st6{fill:url(#SVGID_7_);}
	.st7{fill:url(#SVGID_8_);}
	.st8{fill:url(#SVGID_9_);}
	.st9{fill:url(#SVGID_10_);}
	.st10{fill:url(#SVGID_11_);}
	.st11{fill:url(#SVGID_12_);}
	.st12{fill:url(#SVGID_13_);}
	.st13{fill:url(#SVGID_14_);}
	.st14{fill:url(#SVGID_15_);}
	.st15{fill:url(#SVGID_16_);}
	.st16{fill:url(#SVGID_17_);}
	.st17{fill:url(#SVGID_18_);}
	.st18{fill:url(#SVGID_19_);}
	.st19{fill:url(#SVGID_20_);}
	.st20{fill:#1657E9;}
	.st21{fill:#01EFB1;}
</style>
<linearGradient id="SVGID_1_" gradientUnits="userSpaceOnUse" x1="70.1973" y1="256" x2="441.8027" y2="256">
	<stop  offset="0" style="stop-color:#1657E9"/>
	<stop  offset="0.1228" style="stop-color:#136BE2"/>
	<stop  offset="0.7276" style="stop-color:#06C9BF"/>
	<stop  offset="1" style="stop-color:#01EFB1"/>
</linearGradient>
<path class="st0" d="M254.2,444.7c-39.3,0-78.6,0.1-117.9,0c-39.5-0.2-65.8-26.2-65.9-65.5c-0.2-67.7-0.1-135.4-0.1-203.1
	c0-8.8-1.2-19.4,11.3-19.6c14-0.2,11.9,11.4,11.9,20.4c0.1,65.5,0,131,0.1,196.6c0,33.1,14.7,47.8,47.9,47.9
	c75.4,0.1,150.7,0.1,226.1,0c34.6,0,48.2-13.8,48.2-48.9c0.1-67.7,0.2-135.4-0.1-203.1c0-8.8,0.4-13.9,11.8-13.8
	c10.7,0.1,12.4,3.9,12.4,13.4c-0.4,69.9,0.1,139.8-0.3,209.7c-0.2,40.5-26.6,65.9-67.3,66.1c-19.7,0.1-39.3,0-59,0
	C293.5,444.8,273.9,444.8,254.2,444.7z M178.8,319.8c11-11.6,24.9-19.5,37.7-28.7c11.7-8.4,22.3-17.7,27.3-31.7
	c7.6-21.3-1.8-43.9-22.2-53.8c-24.2-11.9-56.1-4.1-70,17.5c-5.6,8.7-12.8,19.9-0.1,26.9c13.1,7.2,16-5.6,19.5-14.7
	c0.6-1.5,1.2-3.1,2.1-4.4c7.8-11.6,27.8-14.8,39.7-6.3c11.9,8.5,13.9,25.7,4.1,37.6c-7.4,9-17.2,15.1-26.5,21.7
	c-13,9.1-25.8,18.4-35.6,31.1c-6.7,8.7-11.9,17.9-12.3,29.6c-0.3,8.8,1.5,12.6,11.4,12.3c24.6-0.7,49.1-0.3,73.7-0.2
	c8.5,0.1,18.2,0.4,18.3-10.8c0.1-12.3-10.2-11.8-19.3-11.8c-18.5,0.1-37,0-59,0C172.9,327.4,175.5,323.3,178.8,319.8z M321.6,111
	c28.7,1.4,27.2-4.4,26.6-31c-0.1-7.4-3.8-12.7-11.9-12.7c-7.1-0.1-11.6,4.1-11.2,11.2c0.5,9-4.7,9.2-11.3,9.2
	c-24.5-0.2-48.9,0.1-73.4-0.1c-8.8-0.1-15.8,2.7-15.4,12.3c0.3,8.4,6.8,11.3,15,11.2c15.2-0.3,30.5-0.1,45.7-0.1
	C297.7,110.9,309.7,110.4,321.6,111z M157.5,111c28.9,1.2,27.8-2.6,27.1-32c-0.2-6.9-4.2-11.5-11.1-11.8
	c-6.8-0.3-12.2,3.4-11.7,10.6c0.6,10.1-5.2,9.8-12.2,9.8c-21.8-0.2-43.5,0-65.3-0.1c-8.3,0-14.1,3.5-13.7,12.4
	c0.3,7.9,5.9,11,13.5,11c14.1,0,28.3,0,42.4,0C136.8,110.9,147.1,110.6,157.5,111z M413.7,110.9c5.4,0,10.9,0.1,16.3,0
	c7.2-0.1,11.4-4.2,11.7-11c0.3-7.7-4.1-12.2-12-12.3c-10.9-0.1-21.8-0.1-32.7,0.2c-7.2,0.2-11.3,5.1-11.2,11.6
	c0.1,6.4,4.1,11.2,11.4,11.4C402.8,110.9,408.3,110.8,413.7,110.9C413.7,110.8,413.7,110.9,413.7,110.9z M369.5,318.7
	c-4.5,22.7-19.5,36.6-41.9,40c-21,3.1-42.1-7-52.8-25.3c-16.1-27.6-12.9-87.5,6.1-113c19.7-26.5,62.5-26.9,80.4-0.6
	c4.4,6.5,8.9,14.2,0.6,20.2c-8.5,6.1-12.9-0.3-17.7-7.5c-11.6-17.3-32.7-17.1-45.2-0.2c-7.3,9.8-10.5,21.2-11.6,34.6
	c20.9-15,42.2-18.2,62.7-3.4C368.6,276.9,373.9,296.6,369.5,318.7z M348.1,307.2c-0.1-17.9-12.5-32.1-28.1-32.1
	c-15.8,0-28.1,14-28,31.9c0.1,17.6,12.5,31.9,28.2,32.3C335.3,339.8,348.2,325,348.1,307.2z"/>
</svg>
