<?xml version="1.0" encoding="iso-8859-1"?>
<!-- Generator: Adobe Illustrator 19.0.0, SVG Export Plug-In . SVG Version: 6.00 Build 0)  -->
<svg version="1.1" id="Capa_1" xmlns="http://www.w3.org/2000/svg" xmlns:xlink="http://www.w3.org/1999/xlink" x="0px" y="0px"
	 viewBox="0 0 512 512" style="enable-background:new 0 0 512 512;" xml:space="preserve">
<g>
	<g>
		<path style="fill:#F4F6F7;" d="M480,0H32C14.355,0,0,14.355,0,32v336c0,17.645,14.355,32,32,32h448c17.645,0,32-14.355,32-32V32
			C512,14.355,497.645,0,480,0z"/>
		<path style="fill:#EAECEE;" d="M24,368V32C24,14.355,38.355,0,56,0H32C14.355,0,0,14.355,0,32v336c0,17.645,14.355,32,32,32h24
			C38.355,400,24,385.645,24,368z"/>
		<path style="fill:#808E9B;" d="M296,384h-80c-4.418,0-8,3.582-8,8v112c0,4.418,3.582,8,8,8h80c4.418,0,8-3.582,8-8V392
			C304,387.582,300.418,384,296,384z"/>
		<path style="fill:#6B7B8B;" d="M304,392c0-4.418-3.582-8-8-8h-80c-4.418,0-8,3.582-8,8v24h96V392z"/>
		<g>
			<path style="fill:#808E9B;" d="M480,0H32C14.327,0,0,14.327,0,32v32h512V32C512,14.327,497.673,0,480,0z"/>
			<path style="fill:#6B7B8B;" d="M56,0H32C14.327,0,0,14.327,0,32v32h24V32C24,14.327,38.327,0,56,0z"/>
			<path style="fill:#808E9B;" d="M512,320H0v48c0,17.673,14.327,32,32,32h448c17.673,0,32-14.327,32-32V320z"/>
			<path style="fill:#6B7B8B;" d="M24,368v-48H0v48c0,17.673,14.327,32,32,32h24C38.327,400,24,385.673,24,368z"/>
		</g>
		<path style="fill:#55697A;" d="M320,512H192c-4.418,0-8-3.582-8-8s3.582-8,8-8h128c4.418,0,8,3.582,8,8S324.418,512,320,512z"/>
		<path style="fill:#55697A;" d="M272,368h-32c-4.418,0-8-3.582-8-8s3.582-8,8-8h32c4.418,0,8,3.582,8,8S276.418,368,272,368z"/>
		<circle style="fill:#40566A;" cx="256" cy="32" r="7.5"/>
	</g>
	<g>
		<path style="fill:#D5D9DE;" d="M280,176h-48c-13.233,0-24,10.767-24,24v56c0,4.418,3.582,8,8,8h80c4.418,0,8-3.582,8-8v-56
			C304,186.767,293.233,176,280,176z"/>
		<path style="fill:#BFC7CD;" d="M224,256v-56c0-13.233,10.767-24,24-24h-16c-13.233,0-24,10.767-24,24v56c0,4.418,3.582,8,8,8h16
			C227.582,264,224,260.418,224,256z"/>
		<path style="fill:#FFDCCE;" d="M256,96c-22.056,0-40,17.944-40,40s17.944,40,40,40s40-17.944,40-40S278.056,96,256,96z"/>
		<path style="fill:#FFCBB6;" d="M232,136c0-19.316,13.765-35.479,32-39.195c-2.586-0.527-5.261-0.805-8-0.805
			c-22.056,0-40,17.944-40,40s17.944,40,40,40c2.739,0,5.414-0.278,8-0.805C245.765,171.479,232,155.316,232,136z"/>
		<path style="fill:#55697A;" d="M256,96c-36.581,0-52.47,24.896-55.761,38.06c-1.243,4.97,2.642,9.94,7.761,9.94h87.219
			C300.2,118.454,280.672,96,256,96z"/>
	</g>
	<g>
		<path style="fill:#AAB4BD;" d="M232,295.5h-24c-4.143,0-7.5-3.357-7.5-7.5s3.357-7.5,7.5-7.5h24c4.143,0,7.5,3.357,7.5,7.5
			S236.143,295.5,232,295.5z"/>
		<path style="fill:#AAB4BD;" d="M304,295.5h-40c-4.143,0-7.5-3.357-7.5-7.5s3.357-7.5,7.5-7.5h40c4.143,0,7.5,3.357,7.5,7.5
			S308.143,295.5,304,295.5z"/>
	</g>
	<path style="fill:#49DFE5;" d="M440.485,187.514l-48-48c-4.686-4.686-12.285-4.686-16.971,0c-4.687,4.687-4.687,12.284,0,16.971
		L415.029,196l-39.515,39.515c-4.27,4.27-4.664,11.276-0.88,15.988c4.414,5.497,12.862,5.972,17.851,0.982l48-48
		C445.172,199.798,445.172,192.201,440.485,187.514z"/>
	<path style="fill:#49DFE5;" d="M71.515,187.514l48-48c4.686-4.686,12.285-4.686,16.971,0c4.687,4.687,4.687,12.284,0,16.971
		L96.971,196l39.515,39.515c4.27,4.27,4.664,11.276,0.88,15.988c-4.414,5.497-12.862,5.972-17.851,0.982l-48-48
		C66.828,199.798,66.828,192.201,71.515,187.514z"/>
</g>
<g>
</g>
<g>
</g>
<g>
</g>
<g>
</g>
<g>
</g>
<g>
</g>
<g>
</g>
<g>
</g>
<g>
</g>
<g>
</g>
<g>
</g>
<g>
</g>
<g>
</g>
<g>
</g>
<g>
</g>
</svg>
